<svg width="395" height="233" viewBox="0 0 395 233" fill="none" xmlns="http://www.w3.org/2000/svg">
<path fill-rule="evenodd" clip-rule="evenodd" d="M123.978 117.172C123.947 119.396 122.12 121.175 119.895 121.145C113.269 121.054 98.4663 120.793 92.8147 120.47C87.6259 120.174 81.5807 123.845 81.2975 131.004C81.2096 133.227 79.3363 134.957 77.1133 134.87C74.8904 134.782 73.1597 132.908 73.2476 130.685C73.7465 118.073 84.6019 111.932 93.2742 112.427C98.7115 112.738 113.314 112.998 120.005 113.089C122.229 113.119 124.008 114.947 123.978 117.172Z" fill="#602B7A"/>
<path d="M189.761 180.474L189.761 180.474C191.775 175.961 195.865 170.463 199.498 166.041C203.016 161.758 206.127 158.458 206.562 157.997C206.577 157.982 206.588 157.969 206.597 157.96L206.598 157.959C207.988 156.496 210.296 156.442 211.758 157.831C213.221 159.22 213.275 161.528 211.888 162.99C211.883 162.995 211.874 163.005 211.86 163.019C211.535 163.365 208.669 166.411 205.419 170.335C201.994 174.468 198.168 179.543 196.426 183.445C195.708 185.054 195.031 187.563 194.41 190.558C193.791 193.547 193.232 197 192.746 200.486C191.774 207.458 191.096 214.548 190.81 218.291C190.73 219.367 190.173 220.35 189.301 220.971C188.969 221.216 188.603 221.395 188.22 221.51C187.591 221.699 186.918 221.719 186.273 221.554L176.169 218.995L189.761 180.474ZM189.761 180.474C188.182 184.021 186.902 190.339 185.922 196.749C184.968 202.991 184.294 209.359 183.912 213.424M189.761 180.474L183.912 213.424M183.912 213.424L177.966 211.921C177.966 211.921 177.966 211.921 177.965 211.921L177.965 211.921L183.912 213.424ZM173.53 214.559C173.03 216.517 174.214 218.501 176.169 218.995L173.53 214.559Z" fill="#602B7A" stroke="#602B7A" stroke-width="0.59464" stroke-linecap="round" stroke-linejoin="round"/>
<path d="M213.063 184.622C211.249 185.217 209.288 184.279 208.614 182.493L183.776 116.739C183.045 114.804 180.828 113.894 178.949 114.757L114.744 144.243C112.765 145.152 110.442 144.093 109.83 142.003L91.34 78.8415C90.7658 76.8801 88.6647 75.8009 86.7361 76.4767L36.4717 94.0891C34.6129 94.7404 32.5779 93.7622 31.9255 91.9038L22.8351 66.0107C22.1821 64.1508 23.1612 62.1137 25.0215 61.4618L109.694 31.7887C111.622 31.1128 113.723 32.1919 114.298 34.1532L131.782 93.8707C132.394 95.9596 134.717 97.0188 136.695 96.1105L198.213 67.862C200.092 66.9991 202.309 67.9092 203.039 69.8436L229.143 138.951C229.816 140.734 231.771 141.673 233.583 141.084L366.154 98.0077C368.008 97.4055 370.001 98.4018 370.632 100.246L379.524 126.223C380.167 128.104 379.149 130.149 377.26 130.769L213.063 184.622Z" fill="#33DFC0"/>
<path d="M79.9504 51.3763C82.1354 47.9851 86.4932 42.4967 92.5171 41.0521C98.5409 39.6075 104.686 42.5772 108.024 44.644C109.57 45.6015 109.991 47.5916 108.978 49.1628C106.793 52.554 102.435 58.0424 96.4116 59.487C90.3878 60.9316 84.2431 57.9619 80.905 55.8952C79.3584 54.9376 78.938 52.9476 79.9504 51.3763Z" fill="white"/>
<path d="M87.4201 51.9714C86.6083 48.1141 89.2402 44.1953 93.2986 43.2185C97.3571 42.2417 101.305 44.5768 102.117 48.4341C102.929 52.2914 100.297 56.2102 96.2385 57.187C92.18 58.1638 88.2319 55.8287 87.4201 51.9714Z" fill="#33DFC0"/>
<path d="M91.0934 51.0882C90.6875 49.1595 92.0034 47.2 94.0326 46.7116C96.0619 46.2231 98.0359 47.3907 98.4418 49.3194C98.8477 51.2481 97.5317 53.2076 95.5025 53.696C93.4733 54.1844 91.4993 53.0169 91.0934 51.0882Z" fill="#5F2583"/>
<path d="M28.3412 84.3925C28.7736 85.0382 29.1326 85.5027 29.8107 85.4547C30.4889 85.4069 31.1727 85.2843 31.8518 85.0814C35.5126 83.9877 36.2682 82.7552 37.9832 80.8544C39.4123 79.2705 38.1839 76.979 36.1458 78.8164C36.1458 78.8164 34.5407 81.2979 31.1188 82.628C30.3492 82.9271 29.5026 82.9497 28.6526 82.8051C28.5978 82.7957 27.9089 83.7468 28.3412 84.3925Z" fill="white"/>
<path fill-rule="evenodd" clip-rule="evenodd" d="M115.751 127.249C116.625 129.295 115.675 131.662 113.629 132.536C112.627 132.964 111.619 133.397 110.611 133.829C105.523 136.012 100.428 138.198 96.0022 139.866C91.1387 141.699 87.1007 147.505 89.7442 154.164C90.565 156.232 89.5542 158.574 87.4865 159.394C85.4188 160.215 83.0772 159.204 82.2564 157.137C77.5992 145.405 85.033 135.39 93.1616 132.327C97.4014 130.73 102.29 128.632 107.381 126.449C108.402 126.011 109.431 125.569 110.464 125.128C112.51 124.253 114.877 125.203 115.751 127.249Z" fill="#602B7A"/>
<path d="M244.057 214.796L244.057 214.796C243.239 216.635 244.065 218.795 245.905 219.614C246.613 219.93 247.371 219.999 248.08 219.862C249.211 219.643 250.219 218.897 250.727 217.758L250.456 217.637L250.727 217.758L255.169 207.795C255.574 206.891 255.596 205.853 255.216 204.929C254.837 204.007 254.102 203.28 253.176 202.916C249.217 201.354 243.843 198.849 239.122 196.088C236.761 194.707 234.568 193.265 232.8 191.847C231.025 190.425 229.701 189.048 229.048 187.802C227.065 184.016 225.452 177.87 224.331 172.621C223.254 167.583 222.637 163.407 222.58 163.019C222.578 163.005 222.576 162.996 222.576 162.992C222.285 160.998 220.442 159.615 218.446 159.897C216.443 160.167 215.065 162.027 215.347 164.021C215.401 164.404 216.066 169.01 217.287 174.609C218.506 180.2 220.288 186.816 222.583 191.195C224.541 194.934 229.089 198.508 233.921 201.492C238.634 204.403 243.672 206.784 246.983 208.237L244.057 214.796Z" fill="#602B7A" stroke="#602B7A" stroke-width="0.59464" stroke-linecap="round" stroke-linejoin="round"/>
</svg>
