<svg width="243" height="280" viewBox="0 0 243 280" fill="none" xmlns="http://www.w3.org/2000/svg">
<path d="M174.711 181.112C176.191 181.279 177.684 180.694 178.439 179.521L188.654 163.806C189.677 162.241 189.006 160.218 187.165 159.29C185.323 158.369 183.002 158.885 181.979 160.45L171.764 176.165C170.741 177.731 171.412 179.753 173.253 180.682C173.725 180.917 174.218 181.056 174.711 181.112Z" fill="#602B7A"/>
<path d="M179.557 185.284C181.037 185.451 182.529 184.866 183.285 183.693L193.499 167.978C194.523 166.413 193.851 164.39 192.011 163.462C190.169 162.541 187.848 163.057 186.824 164.622L176.61 180.337C175.587 181.903 176.258 183.925 178.099 184.854C178.561 185.088 179.063 185.228 179.557 185.284Z" fill="#602B7A"/>
<path d="M184.402 189.461C185.882 189.628 187.375 189.044 188.131 187.87L198.345 172.155C199.369 170.59 198.697 168.568 196.856 167.639C195.015 166.718 192.694 167.234 191.67 168.799L181.456 184.514C180.432 186.08 181.104 188.102 182.944 189.031C183.407 189.265 183.9 189.404 184.402 189.461Z" fill="#602B7A"/>
<path d="M92.3306 205.277C91.2752 205.945 89.8628 205.988 88.7432 205.274L73.6755 195.745C72.1698 194.798 71.7509 192.863 72.7312 191.427C73.716 189.998 75.7305 189.602 77.2361 190.549L92.3038 200.078C93.8095 201.026 94.2284 202.961 93.2481 204.396C92.9957 204.762 92.6823 205.054 92.3306 205.277Z" fill="#602B7A"/>
<path d="M89.481 210.998C88.4256 211.666 87.0132 211.709 85.8936 210.995L70.8259 201.466C69.3202 200.519 68.9013 198.583 69.8816 197.148C70.8664 195.719 72.8809 195.323 74.3865 196.27L89.4542 205.799C90.9599 206.746 91.3788 208.681 90.3985 210.117C90.1529 210.479 89.8327 210.775 89.481 210.998Z" fill="#602B7A"/>
<path d="M86.6356 216.724C85.5803 217.392 84.168 217.435 83.0483 216.721L67.9806 207.192C66.475 206.245 66.0561 204.31 67.0364 202.874C68.0212 201.445 70.0356 201.049 71.5413 201.996L86.6089 211.525C88.1146 212.473 88.5335 214.408 87.5532 215.843C87.3076 216.205 86.9942 216.497 86.6356 216.724Z" fill="#602B7A"/>
<path d="M57.5113 99.0542C58.988 99.3161 60.5459 98.7151 61.4413 97.3985C61.4964 97.3126 67.2322 88.9355 72.2192 85.1865C76.138 82.2449 83.5882 78.3664 83.6596 78.3233C85.5832 77.3246 86.3383 74.9545 85.3397 73.0309C84.341 71.1074 81.9695 70.36 80.0473 71.3509C79.7215 71.5244 71.9469 75.5686 67.5038 78.9037C61.4681 83.4397 55.2131 92.586 54.9521 92.9784C53.733 94.7718 54.2009 97.2152 55.9944 98.4344C56.4635 98.7568 56.9778 98.9596 57.5113 99.0542Z" fill="#602B7A"/>
<path d="M166.051 76.0519C167.667 76.3384 169.357 75.5774 170.184 74.0575C171.216 72.1511 170.514 69.7698 168.608 68.7379C168.171 68.5011 157.913 62.942 151.297 60.3575C144.109 57.5438 132.851 58.881 131.587 59.0396C129.433 59.3117 127.919 61.2841 128.192 63.43C128.464 65.5835 130.436 67.1053 132.583 66.8241C135.463 66.4575 143.919 65.8995 148.439 67.6658C154.599 70.0738 164.764 75.5764 164.865 75.6343C165.242 75.8447 165.641 75.9792 166.051 76.0519Z" fill="#602B7A"/>
<path d="M194.984 272.958C195.668 273.135 196.391 273.128 197.077 272.925L208.786 269.472C210.867 268.861 212.058 266.679 211.438 264.596C210.826 262.514 208.645 261.324 206.561 261.943L199.281 264.086C198.035 254.661 194.894 233.558 190.926 225.496C185.848 215.206 170.901 200.621 170.274 200.004C168.72 198.489 166.236 198.527 164.722 200.081C163.207 201.635 163.245 204.118 164.799 205.633C164.94 205.775 179.408 219.895 183.885 228.966C187.606 236.511 191.057 260.858 192.065 269.605C192.196 270.758 192.836 271.792 193.8 272.423C194.165 272.672 194.566 272.849 194.984 272.958Z" fill="#602B7A"/>
<rect width="58.1181" height="202.476" rx="14.14" transform="matrix(-0.952904 0.303273 0.303273 0.952904 116.091 10.7276)" fill="#FFD749"/>
<path d="M115.65 37.3338C117.427 38.0934 118.095 40.143 117.105 41.8035C114.647 45.9282 109.382 53.1418 101.449 55.7231C93.5162 58.3046 85.0093 55.5716 80.5924 53.6842C78.8148 52.9245 78.1474 50.875 79.137 49.2144C81.5952 45.0897 86.8606 37.8761 94.7929 35.2948C102.726 32.7134 111.233 35.4464 115.65 37.3338Z" fill="white"/>
<path d="M101.009 54.3983C105.74 52.8588 108.281 47.6322 106.684 42.7244C105.087 37.8165 99.9569 35.0859 95.2259 36.6254C90.4949 38.1649 87.9543 43.3915 89.5514 48.2994C91.1485 53.2073 96.2784 55.9378 101.009 54.3983Z" fill="#F44C75"/>
<path d="M99.4487 49.6029C101.628 48.8936 102.8 46.487 102.064 44.2276C101.329 41.9682 98.966 40.7116 96.7862 41.421C94.6064 42.1303 93.4354 44.5369 94.1706 46.7963C94.9058 49.0557 97.2689 50.3122 99.4487 49.6029Z" fill="#602B7A"/>
<path d="M91.5942 273.431C92.3466 273.626 93.1639 273.603 93.9454 273.311C95.9746 272.555 97.0079 270.293 96.2526 268.263L93.1904 260.054C101.108 257.176 118.089 250.225 123.108 241.946C129.061 232.134 133.333 211.696 133.51 210.825C133.948 208.7 132.591 206.612 130.462 206.19C128.337 205.752 126.264 207.112 125.818 209.236C125.775 209.435 121.64 229.219 116.395 237.868C112.823 243.756 96.4086 250.838 86.8969 253.92C85.8789 254.248 85.0402 254.979 84.5708 255.944C84.1013 256.91 84.0553 258.025 84.4293 259.023L88.8923 270.994C89.3611 272.251 90.3933 273.119 91.5942 273.431Z" fill="#602B7A"/>
<path d="M111.846 65.0036C111.203 65.2619 110.758 65.8901 110.758 66.625C110.755 66.7869 110.698 70.8102 107.259 72.1999C103.79 73.5981 100.829 70.7624 100.704 70.6396C100.02 69.9714 98.9231 69.9802 98.2563 70.6578C97.5826 71.3341 97.5845 72.4296 98.2608 73.1033C98.4502 73.295 102.942 77.6889 108.556 75.4231C114.2 73.1421 114.228 66.8803 114.23 66.6122C114.222 65.6569 113.445 64.8792 112.483 64.8856C112.259 64.8778 112.039 64.9204 111.846 65.0036Z" fill="#602B7A"/>
<path d="M61.4349 35.7328C57.4732 37.5306 54.0535 37.5921 54.0101 37.5904C51.9702 37.6123 50.3305 39.2638 50.345 41.2822C50.3706 43.255 51.9401 44.8475 53.9021 44.9235L54.0502 44.9292C54.2727 44.9287 59.65 44.8894 65.5868 41.891C72.6295 38.3392 82.5578 31.1206 87.3606 22.4653C89.762 18.1377 91.7931 13.0803 91.8756 12.8633C92.625 10.9847 91.6975 8.84847 89.7891 8.10502C87.89 7.36193 85.732 8.27803 84.9823 10.1658C84.9823 10.1658 84.9745 10.1848 84.9624 10.2144C84.813 10.5804 83.8456 12.9499 82.5627 15.6208C78.6618 12.3545 70.575 5.59628 69.016 4.39516C66.9451 2.80905 52.2149 20.9609 53.3107 24.0243C54.062 26.1072 58.6038 32.1055 61.4349 35.7328Z" fill="#602B7A"/>
<path d="M61.4349 35.7328L61.8065 35.4428C61.8954 35.5567 61.9271 35.705 61.8926 35.8453C61.8582 35.9856 61.7612 36.1023 61.6297 36.162L61.4349 35.7328ZM54.0101 37.5904L54.0051 37.1191C54.0128 37.119 54.0206 37.1191 54.0283 37.1194L54.0101 37.5904ZM50.345 41.2822L49.8737 41.2883L49.8737 41.2855L50.345 41.2822ZM53.9021 44.9235L53.9204 44.4525L53.9204 44.4525L53.9021 44.9235ZM54.0502 44.9292L54.0514 45.4006C54.0449 45.4006 54.0384 45.4005 54.032 45.4002L54.0502 44.9292ZM65.5868 41.891L65.3743 41.4702L65.3746 41.4701L65.5868 41.891ZM87.3606 22.4653L86.9484 22.2366L86.9484 22.2366L87.3606 22.4653ZM91.8756 12.8633L91.435 12.6957L91.4378 12.6887L91.8756 12.8633ZM89.7891 8.10502L89.618 8.54421L89.6174 8.54395L89.7891 8.10502ZM84.9823 10.1658L85.4204 10.3398L85.4179 10.346L84.9823 10.1658ZM84.9624 10.2144L84.526 10.0363L84.526 10.0363L84.9624 10.2144ZM82.5627 15.6208L82.9875 15.8249C82.9245 15.956 82.8045 16.0508 82.6623 16.0815C82.5201 16.1123 82.3716 16.0756 82.2601 15.9822L82.5627 15.6208ZM69.016 4.39516L69.3026 4.02096L69.3037 4.02179L69.016 4.39516ZM53.3107 24.0243L52.8673 24.1842L52.8669 24.1831L53.3107 24.0243ZM61.6297 36.162C57.5907 37.9948 54.0962 38.0655 53.9919 38.0614L54.0283 37.1194C54.0109 37.1188 57.3556 37.0663 61.2402 35.3036L61.6297 36.162ZM54.0152 38.0617C52.2301 38.0809 50.8037 39.5248 50.8163 41.2788L49.8737 41.2855C49.8573 39.0029 51.7102 37.1437 54.0051 37.1191L54.0152 38.0617ZM50.8163 41.2761C50.8386 42.9959 52.2068 44.3861 53.9204 44.4525L53.8839 45.3945C51.6734 45.3088 49.9025 43.5142 49.8737 41.2883L50.8163 41.2761ZM53.9204 44.4525L54.0685 44.4582L54.032 45.4002L53.8839 45.3945L53.9204 44.4525ZM54.049 44.4579C54.2378 44.4574 59.5311 44.4214 65.3743 41.4702L65.7993 42.3117C59.7689 45.3573 54.3076 45.3999 54.0514 45.4006L54.049 44.4579ZM65.3746 41.4701C72.3763 37.9391 82.2105 30.7751 86.9484 22.2366L87.7727 22.694C82.9051 31.4661 72.8828 38.7394 65.7991 42.3118L65.3746 41.4701ZM86.9484 22.2366C89.3348 17.9361 91.3568 12.9015 91.4351 12.6957L92.3161 13.031C92.2293 13.2591 90.1891 18.3392 87.7727 22.694L86.9484 22.2366ZM91.4378 12.6887C92.0895 11.0551 91.2843 9.19335 89.618 8.54421L89.9602 7.66584C92.1106 8.50359 93.1605 10.9143 92.3134 13.038L91.4378 12.6887ZM89.6174 8.54395C87.9549 7.89344 86.0724 8.69797 85.4204 10.3398L84.5443 9.99187C85.3917 7.8581 87.8252 6.83042 89.9609 7.66609L89.6174 8.54395ZM84.9823 10.1658C85.4179 10.346 85.4179 10.346 85.4179 10.346C85.4179 10.346 85.4179 10.346 85.4179 10.346C85.4179 10.346 85.4179 10.346 85.4179 10.346C85.4179 10.346 85.4179 10.346 85.4179 10.346C85.4179 10.346 85.4179 10.346 85.4179 10.346C85.4178 10.346 85.4178 10.3461 85.4178 10.3461C85.4178 10.3462 85.4177 10.3464 85.4176 10.3467C85.4174 10.3472 85.417 10.348 85.4166 10.349C85.4157 10.3511 85.4145 10.3542 85.4128 10.3583C85.4094 10.3664 85.4046 10.3782 85.3987 10.3926L84.526 10.0363C84.5322 10.021 84.5374 10.0085 84.541 9.99975C84.5428 9.99536 84.5442 9.99191 84.5452 9.98953C84.5457 9.98834 84.546 9.98741 84.5463 9.98677C84.5464 9.98645 84.5466 9.9862 84.5466 9.98602C84.5467 9.98593 84.5467 9.98585 84.5467 9.9858C84.5467 9.98577 84.5467 9.98575 84.5467 9.98574C84.5467 9.98573 84.5467 9.98572 84.5468 9.98571C84.5468 9.98571 84.5468 9.98571 84.5468 9.9857C84.5468 9.9857 84.5468 9.9857 84.5468 9.9857C84.5468 9.9857 84.5468 9.9857 84.9823 10.1658ZM85.3987 10.3926C85.2482 10.7612 84.2767 13.1411 82.9875 15.8249L82.1378 15.4167C83.4146 12.7587 84.3777 10.3995 84.526 10.0363L85.3987 10.3926ZM82.2601 15.9822C78.3527 12.7105 70.2774 5.96198 68.7284 4.76852L69.3037 4.02179C70.8726 5.23058 78.9709 11.9986 82.8653 15.2594L82.2601 15.9822ZM68.7294 4.76935C68.7525 4.78703 68.7352 4.74987 68.5834 4.7818C68.4329 4.81346 68.2192 4.90078 67.9398 5.06433C67.3846 5.38929 66.6729 5.95331 65.8539 6.70875C64.2219 8.21402 62.2368 10.4109 60.3429 12.7619C58.4495 15.1122 56.6603 17.6004 55.4158 19.6836C54.7926 20.7267 54.3142 21.6547 54.026 22.4052C53.8818 22.7807 53.7904 23.0987 53.7491 23.3562C53.7068 23.6204 53.7241 23.7805 53.7545 23.8656L52.8669 24.1831C52.7604 23.8853 52.7643 23.5445 52.8183 23.2071C52.8735 22.8628 52.9882 22.4783 53.146 22.0674C53.4617 21.2451 53.9705 20.2648 54.6065 19.2001C55.8804 17.0678 57.6978 14.5427 59.6088 12.1705C61.5193 9.79885 63.5366 7.56366 65.2148 6.01582C66.0508 5.2447 66.8211 4.62689 67.4636 4.25079C67.783 4.06382 68.0971 3.9208 68.3893 3.85932C68.6803 3.79812 69.0207 3.80501 69.3026 4.02096L68.7294 4.76935ZM53.7541 23.8644C53.9228 24.3322 54.3223 25.0596 54.8975 25.9708C55.4664 26.8719 56.1872 27.9222 56.9762 29.0252C58.5539 31.2307 60.3925 33.6312 61.8065 35.4428L61.0634 36.0228C59.6462 34.2072 57.7984 31.7948 56.2095 29.5736C55.4153 28.4633 54.6829 27.3967 54.1004 26.474C53.5242 25.5613 53.0742 24.7579 52.8673 24.1842L53.7541 23.8644Z" fill="#602B7A"/>
<path d="M159.354 64.2322C163.841 57.4753 172.955 55.6348 179.712 60.1213L235.592 97.2248C235.712 97.2999 235.832 97.3769 235.951 97.4559C242.708 101.942 244.548 111.057 240.062 117.814L202.728 174.04C198.242 180.797 189.127 182.637 182.371 178.151C175.614 173.664 173.773 164.55 178.26 157.793L207.466 113.806L163.465 84.5901C156.708 80.1036 154.868 70.989 159.354 64.2322Z" fill="#FFD749"/>
<path d="M35.0462 156.271L64.2566 112.279C68.7431 105.522 66.9026 96.4073 60.1458 91.9208C53.3889 87.4343 44.2743 89.2749 39.7878 96.0317L2.55744 152.103C2.52233 152.154 2.48752 152.206 2.45296 152.258C-2.03353 159.015 -0.19302 168.129 6.56386 172.616L62.79 209.949C69.5469 214.436 78.6615 212.595 83.1479 205.838C87.6344 199.082 85.7939 189.967 79.037 185.48L35.0462 156.271Z" fill="#FFD749"/>
</svg>
