<svg width="283" height="391" viewBox="0 0 283 391" fill="none" xmlns="http://www.w3.org/2000/svg">
<path d="M29.935 188.366C33.5395 190.155 41.7116 192.274 48.1219 189.165C55.6414 185.518 61.093 176.831 64.898 177.033C68.7031 177.236 70.7442 180.096 68.7209 184.785C63.8174 192.693 54.1422 199.467 43.5287 201.28C32.9153 203.094 23.8229 195.225 15.344 189.642C11.7406 187.269 9.26963 185.294 6.91256 184.18C4.55548 183.066 -1.36617 177.094 1.37555 175.657C4.11727 174.221 6.34182 180.332 8.30785 181.389C10.2739 182.446 10.8586 181.754 10.7934 180.952C10.7282 180.149 5.49842 176.129 4.83029 172.949C4.16217 169.769 8.0688 169.192 9.86921 172.134C11.5188 174.829 11.8875 176.649 13.8953 177.9C15.6987 179.024 15.9858 176.505 14.5905 175.109C13.1952 173.714 11.021 170.78 11.8024 168.831C13.2006 165.343 15.9883 170.924 16.6801 172.319C17.3719 173.713 20.1441 183.505 29.935 188.366Z" fill="#602B7A"/>
<path d="M51.6137 163.43C51.6137 163.43 72.2322 175.888 53.6543 149.297C51.1833 145.76 49.8377 141.993 47.3763 139.53C44.9149 137.067 40.326 132.198 38.9653 134.978C37.6045 137.758 42.6609 140.585 44.5848 142.32C46.5087 144.054 44.5848 145.11 43.8872 144.413C43.0829 144.37 39.5504 139.086 36.3529 138.506C33.1555 137.925 33.0847 141.34 36.0751 143.059C38.8149 144.634 39.7911 145.231 41.0966 147.203C42.2158 148.894 41.0985 149.994 39.7032 149.296C38.3079 148.599 35.8851 145.206 34.1241 145.111C31.3072 144.958 33.1049 148.486 36.2138 150.692C39.3228 152.899 51.6137 163.43 51.6137 163.43Z" fill="#602B7A"/>
<path fill-rule="evenodd" clip-rule="evenodd" d="M214.754 213.532L144.134 142.91L144.12 142.923C132.14 131.699 113.325 131.933 101.631 143.627C89.9365 155.322 89.7037 174.135 100.927 186.117L100.913 186.13L185.046 270.265C186.175 269.431 187.318 268.617 188.468 267.797C196.197 262.287 204.298 256.512 211.254 242.988C216.293 233.189 215.878 223.456 214.754 213.532Z" fill="#33DFC0"/>
<path fill-rule="evenodd" clip-rule="evenodd" d="M188.918 267.476L87.6897 166.244L87.6765 166.257C75.6964 155.033 56.8816 155.267 45.1871 166.962C33.4926 178.656 33.2598 197.47 44.4827 209.451L44.4695 209.464L164.658 329.658C164.654 326.764 164.582 323.937 164.513 321.173C164.225 309.747 163.964 299.374 168.554 289.615C173.947 278.149 181.035 273.096 188.469 267.797C188.618 267.69 188.768 267.583 188.918 267.476Z" fill="#F44C75"/>
<path fill-rule="evenodd" clip-rule="evenodd" d="M63.6817 21.9797C51.9873 33.6742 51.7545 52.488 62.9773 64.4691L62.9641 64.4823L211.78 213.3C212.919 214.439 214.126 215.47 215.388 216.392C215.162 214.018 214.868 211.634 214.573 209.238C212.65 193.62 210.658 177.443 226.761 159.722C229.664 156.527 232.56 153.449 235.418 150.497L106.184 21.2621L106.171 21.2753C94.191 10.0514 75.3762 10.2852 63.6817 21.9797Z" fill="#602B7A"/>
<path d="M100.057 42.3202C100.522 44.9979 98.3079 47.1643 95.6412 46.6398C92.9417 46.1088 89.6281 44.9581 87.2024 42.4777C84.7761 39.9968 83.6987 36.6565 83.2274 33.9447C82.762 31.267 84.9763 29.1006 87.643 29.6251C90.3425 30.1561 93.6561 31.3068 96.0818 33.7872C98.5081 36.2681 99.5854 39.6084 100.057 42.3202Z" fill="white"/>
<path d="M87.7754 41.9064C89.787 43.9633 93.1475 43.9391 95.2813 41.8523C97.4151 39.7656 97.5142 36.4064 95.5026 34.3495C93.4911 32.2926 90.1306 32.3168 87.9967 34.4036C85.8629 36.4904 85.7638 39.8495 87.7754 41.9064Z" fill="#F44C75"/>
<path d="M89.8616 39.8684C90.7884 40.8161 92.3361 40.8056 93.3184 39.8449C94.3007 38.8843 94.3457 37.3372 93.4189 36.3895C92.4921 35.4418 90.9444 35.4523 89.9621 36.4129C88.9797 37.3736 88.9348 38.9207 89.8616 39.8684Z" fill="#602B7A"/>
<path d="M54.9351 24.7497C53.9643 23.7789 52.3241 24.1359 51.837 25.416C50.2252 29.647 51.1262 34.6237 54.5481 38.0455C57.9675 41.4649 62.9441 42.3659 67.1776 40.7565C68.4577 40.2694 68.8146 38.6293 67.8438 37.6585C67.8438 37.6585 60.9044 39.8186 56.8397 35.7539C52.7749 31.6891 54.9351 24.7497 54.9351 24.7497Z" fill="white"/>
<rect width="23.4004" height="6.89315" transform="matrix(-0.707107 -0.707107 -0.707107 0.707107 91.0742 55.8304)" fill="#602B7A"/>
<path d="M131.168 93.7423L118.861 81.435C118.013 82.8505 117.701 84.297 117.927 85.7743C118.199 87.2512 118.974 88.628 120.251 89.9049C121.977 91.631 124.211 92.6605 126.952 92.9933L125.615 98.3027C121.728 97.9803 118.497 96.5304 115.919 93.9531C113.175 91.3057 111.773 88.1211 111.711 84.3994C111.698 80.6772 113.015 77.5394 115.663 74.9859C118.192 72.362 121.294 71.0332 124.969 70.9997C128.644 70.9661 131.723 72.2384 134.204 74.8166C136.616 77.2284 137.796 79.9975 137.743 83.1237C137.715 86.2737 136.52 89.0286 134.16 91.3885C133.294 92.2554 132.296 93.04 131.168 93.7423ZM122.293 78.0035L130.273 85.9837C131.333 84.8764 131.821 83.6312 131.739 82.248C131.703 80.8644 131.154 79.6405 130.09 78.5765C129.073 77.5598 127.861 76.9982 126.454 76.8917C125.048 76.7853 123.66 77.1558 122.293 78.0035Z" fill="white"/>
<path d="M127.927 105.094L155.018 78.003L159.806 82.7912L132.715 109.882L127.927 105.094Z" fill="white"/>
<path d="M138.89 109.989L144.264 109.439C144.164 112.565 145 115.015 146.774 116.789C147.436 117.451 148.088 117.862 148.731 118.024C149.422 118.184 150.008 118.024 150.489 117.542C150.85 117.181 150.997 116.774 150.93 116.321C150.91 115.868 150.702 115.13 150.306 114.108L149.221 111.433C148.24 109.056 147.781 107.08 147.843 105.505C147.929 103.905 148.611 102.467 149.887 101.191C151.548 99.5295 153.44 98.8202 155.561 99.0633C157.707 99.2823 159.749 100.361 161.688 102.3C164.289 104.901 165.502 107.897 165.328 111.286L159.918 111.873C159.868 109.559 159.121 107.68 157.679 106.238C156.426 104.985 155.378 104.78 154.535 105.623C154.198 105.96 154.051 106.367 154.094 106.843C154.138 107.32 154.37 108.058 154.79 109.056L155.77 111.481C156.797 113.953 157.28 115.977 157.218 117.552C157.179 119.151 156.522 120.589 155.246 121.865C153.464 123.647 151.417 124.394 149.105 124.105C146.817 123.839 144.68 122.713 142.693 120.727C139.549 117.582 138.281 114.003 138.89 109.989Z" fill="white"/>
<path d="M177.027 139.601L164.72 127.294C163.872 128.709 163.56 130.156 163.785 131.633C164.058 133.11 164.833 134.487 166.11 135.763C167.836 137.49 170.069 138.519 172.81 138.852L171.473 144.161C167.587 143.839 164.355 142.389 161.778 139.812C159.034 137.164 157.631 133.98 157.57 130.258C157.556 126.536 158.873 123.398 161.521 120.845C164.051 118.221 167.153 116.892 170.828 116.858C174.503 116.825 177.581 118.097 180.063 120.675C182.475 123.087 183.654 125.856 183.602 128.982C183.573 132.132 182.379 134.887 180.019 137.247C179.152 138.114 178.155 138.899 177.027 139.601ZM168.151 123.862L176.131 131.842C177.191 130.735 177.68 129.49 177.597 128.107C177.562 126.723 177.012 125.499 175.948 124.435C174.932 123.418 173.72 122.857 172.313 122.75C170.906 122.644 169.519 123.014 168.151 123.862Z" fill="white"/>
<path d="M138.461 162.848C138.927 165.526 136.712 167.692 134.045 167.168C131.346 166.637 128.032 165.486 125.607 163.005C123.18 160.525 122.103 157.184 121.632 154.472C121.166 151.795 123.381 149.628 126.047 150.153C128.747 150.684 132.06 151.835 134.486 154.315C136.912 156.796 137.99 160.136 138.461 162.848Z" fill="white"/>
<path d="M126.179 162.436C128.191 164.493 131.551 164.469 133.685 162.382C135.819 160.295 135.918 156.936 133.906 154.879C131.895 152.822 128.534 152.846 126.401 154.933C124.267 157.02 124.168 160.379 126.179 162.436Z" fill="#F44C75"/>
<path d="M128.263 160.396C129.19 161.343 130.738 161.333 131.72 160.372C132.703 159.412 132.748 157.865 131.821 156.917C130.894 155.969 129.346 155.98 128.364 156.94C127.382 157.901 127.337 159.448 128.263 160.396Z" fill="#602B7A"/>
<path d="M146.118 204.991L161.146 189.963L165.134 193.951L150.106 208.979L146.118 204.991ZM166.049 183.937C166.778 183.209 167.631 182.848 168.609 182.854C169.588 182.861 170.431 183.219 171.14 183.928C171.849 184.636 172.207 185.48 172.213 186.458C172.239 187.456 171.888 188.319 171.16 189.048C170.451 189.756 169.598 190.097 168.6 190.071C167.622 190.064 166.779 189.706 166.07 188.997C165.361 188.289 165.003 187.445 164.997 186.467C164.99 185.489 165.341 184.646 166.049 183.937Z" fill="white"/>
<path d="M175.507 200.802L173.412 202.897L176.632 206.117L173.171 209.578L169.951 206.358L158.384 217.925L154.396 213.937L165.963 202.37L163.896 200.303L167.357 196.842L169.424 198.909L171.883 196.45C173.745 194.588 175.644 193.674 177.58 193.707C179.516 193.741 181.38 194.653 183.172 196.445C183.92 197.194 184.538 198.034 185.024 198.965L181.593 202.396C181.221 201.902 180.857 201.478 180.503 201.123C179.577 200.198 178.716 199.7 177.918 199.631C177.14 199.582 176.337 199.972 175.507 200.802Z" fill="white"/>
<path d="M79.8883 186.852C80.3537 189.529 78.1394 191.696 75.4727 191.171C72.7732 190.64 69.4596 189.489 67.0339 187.009C64.6077 184.528 63.5303 181.188 63.0589 178.476C62.5935 175.798 64.8078 173.632 67.4745 174.156C70.174 174.687 73.4876 175.838 75.9133 178.318C78.3396 180.799 79.417 184.14 79.8883 186.852Z" fill="white"/>
<path d="M67.6089 186.436C69.6205 188.493 72.981 188.469 75.1148 186.382C77.2486 184.295 77.3477 180.936 75.3361 178.879C73.3246 176.822 69.964 176.846 67.8302 178.933C65.6964 181.02 65.5973 184.379 67.6089 186.436Z" fill="#F44C75"/>
<path d="M69.6951 184.398C70.6219 185.346 72.1696 185.335 73.1519 184.375C74.1342 183.414 74.1792 181.867 73.2524 180.919C72.3256 179.971 70.7779 179.982 69.7956 180.943C68.8132 181.903 68.7683 183.45 69.6951 184.398Z" fill="#602B7A"/>
<path d="M103.266 234.269L99.939 237.596C98.7665 236.894 97.741 236.104 96.8626 235.226C95.0081 233.371 94.0346 231.475 93.9421 229.538C93.8691 227.62 94.7355 225.758 96.5413 223.952L102.636 217.857L100.352 215.573L103.708 212.217L105.992 214.501L109.673 210.82L113.626 214.773L109.945 218.454L114.045 222.553L110.688 225.91L106.589 221.81L100.848 227.551C100.023 228.376 99.6393 229.17 99.6959 229.933C99.7916 230.696 100.318 231.556 101.274 232.512C101.606 232.844 102.27 233.43 103.266 234.269Z" fill="white"/>
<path d="M125.171 244.75L116.132 253.788L112.208 249.865L120.688 241.385C121.532 240.541 121.955 239.61 121.958 238.592C122 237.575 121.621 236.665 120.82 235.865C120.02 235.065 119.091 234.666 118.034 234.669C117.016 234.672 116.085 235.095 115.241 235.939L106.762 244.419L102.809 240.466L124.891 218.384L128.844 222.337L120.099 231.081C122.174 231.075 124.022 231.883 125.642 233.503C127.282 235.143 128.05 236.99 127.946 239.046C127.862 241.082 126.937 242.983 125.171 244.75Z" fill="white"/>
<path d="M139.207 264.969L129.047 254.809C128.359 255.966 128.111 257.15 128.303 258.364C128.535 259.577 129.178 260.71 130.232 261.764C131.657 263.189 133.494 264.045 135.745 264.333L134.676 268.681C131.486 268.396 128.827 267.19 126.699 265.062C124.435 262.876 123.267 260.257 123.197 257.203C123.167 254.15 124.231 251.582 126.39 249.502C128.451 247.362 130.989 246.289 134.003 246.28C137.018 246.272 139.55 247.332 141.599 249.46C143.59 251.451 144.572 253.729 144.546 256.293C144.539 258.877 143.573 261.13 141.65 263.054C140.943 263.761 140.129 264.399 139.207 264.969ZM131.844 252.012L138.432 258.6C139.296 257.697 139.69 256.678 139.615 255.543C139.579 254.408 139.122 253.401 138.243 252.523C137.404 251.683 136.407 251.216 135.252 251.121C134.098 251.027 132.962 251.324 131.844 252.012Z" fill="white"/>
<path d="M158.97 278.548L149.931 287.587L146.007 283.664L154.516 275.155C155.36 274.311 155.783 273.38 155.786 272.362C155.828 271.344 155.449 270.435 154.649 269.634C153.848 268.834 152.92 268.435 151.863 268.438C150.845 268.441 149.914 268.865 149.07 269.709L140.561 278.217L136.608 274.265L151.182 259.69L154.813 263.321L153.488 264.646C155.68 264.64 157.645 265.506 159.382 267.243C161.061 268.922 161.859 270.779 161.775 272.815C161.691 274.851 160.756 276.762 158.97 278.548Z" fill="white"/>
<path d="M93.5037 10.9483C91.0712 7.91088 90.2631 4.96063 90.2549 4.9226C89.7855 3.15865 87.9914 2.10168 86.2446 2.55994C84.5396 3.01774 83.5054 4.73034 83.8728 6.44833L83.9005 6.57799C83.9501 6.77076 85.1717 11.4246 89.0825 15.9102C93.7173 21.2324 102.169 28.2469 110.734 30.4999C115.017 31.6264 119.851 32.2707 120.057 32.2944C121.851 32.5293 123.499 31.2534 123.722 29.4345C123.947 27.6238 122.676 25.9549 120.874 25.7217C120.874 25.7217 120.855 25.7191 120.827 25.7152C120.477 25.6664 118.207 25.3508 115.607 24.8279C117.578 20.7251 121.653 12.2181 122.35 10.6009C123.268 8.45497 104.276 -0.308832 101.862 1.31782C100.222 2.42928 96.0236 7.69258 93.5037 10.9483Z" fill="#F44C75"/>
<path fill-rule="evenodd" clip-rule="evenodd" d="M38.1724 177.845C41.3943 179.971 45.4189 180.364 48.9318 179.028C50.2119 178.541 50.5688 176.901 49.598 175.93C49.598 175.93 43.6129 177.793 39.5036 174.803C39.0021 175.797 38.5584 176.812 38.1724 177.845Z" fill="white"/>
<path fill-rule="evenodd" clip-rule="evenodd" d="M94.0225 156.26C97.4381 159.591 102.355 160.457 106.544 158.864C107.824 158.377 108.181 156.737 107.21 155.766C107.21 155.766 100.271 157.926 96.2061 153.862C95.8689 153.524 95.5745 153.167 95.3182 152.796C94.814 153.929 94.382 155.086 94.0225 156.26Z" fill="white"/>
<path d="M279 111.743C270.866 117.515 249.023 135.194 226.724 159.734C198.851 190.408 225.194 216.456 211.549 242.987C197.904 269.519 179.849 266.228 168.849 289.615C157.85 313.001 174.709 339.911 153.034 376.379" stroke="#FFD749" stroke-width="7.01094" stroke-linecap="round" stroke-linejoin="round"/>
</svg>
