<svg width="370" height="370" viewBox="0 0 370 370" fill="none" xmlns="http://www.w3.org/2000/svg">
<path d="M51.593 264.545C50.6897 265.184 50.4756 266.435 51.1147 267.338C51.7539 268.241 53.0044 268.456 53.9077 267.816L51.593 264.545ZM221.629 268.34L221.828 266.346L221.629 268.34ZM330.262 230.067C330.419 228.971 329.659 227.956 328.564 227.798L310.715 225.231C309.619 225.073 308.604 225.834 308.446 226.929C308.289 228.024 309.049 229.04 310.144 229.197L326.01 231.479L323.728 247.345C323.571 248.441 324.331 249.456 325.426 249.614C326.522 249.771 327.537 249.011 327.695 247.916L330.262 230.067ZM53.9077 267.816C64.0221 260.66 95.6509 240.864 129.364 243.705L129.7 239.712C94.4674 236.742 61.8113 257.315 51.593 264.545L53.9077 267.816ZM129.364 243.705C152.11 245.623 162.712 250.947 173.772 256.458C185.052 262.078 196.77 267.873 221.43 270.334L221.828 266.346C197.84 263.952 186.614 258.379 175.559 252.871C164.286 247.254 153.164 241.69 129.7 239.712L129.364 243.705ZM221.43 270.334C241.387 272.326 263.587 266.154 283.089 257.785C302.627 249.401 319.697 238.708 329.479 231.385L327.078 228.177C317.527 235.326 300.731 245.854 281.508 254.103C262.248 262.367 240.791 268.239 221.828 266.346L221.43 270.334Z" fill="#602B7A"/>
<path d="M57.6034 235.867C56.9689 234.961 55.7196 234.74 54.813 235.375C53.9064 236.009 53.6858 237.258 54.3203 238.165L57.6034 235.867ZM119.943 274.863L119.789 272.865L119.943 274.863ZM233.851 221.821L233.847 223.825L233.851 221.821ZM352.473 262.06C352.593 260.959 351.799 259.97 350.699 259.85L332.773 257.89C331.673 257.77 330.683 258.564 330.563 259.664C330.443 260.764 331.237 261.754 332.337 261.874L348.272 263.616L346.53 279.55C346.409 280.65 347.204 281.639 348.304 281.76C349.404 281.88 350.393 281.086 350.513 279.986L352.473 262.06ZM54.3203 238.165C64.416 252.59 86.2197 279.484 120.098 276.861L119.789 272.865C88.3331 275.301 67.7161 250.316 57.6034 235.867L54.3203 238.165ZM120.098 276.861C149.607 274.576 167.548 260.951 183.392 248.195C199.301 235.386 212.792 223.784 233.847 223.825L233.855 219.818C211.143 219.774 196.549 232.457 180.879 245.073C165.145 257.741 148.016 270.679 119.789 272.865L120.098 276.861ZM233.847 223.825C246.107 223.849 256.266 228.644 265.48 235.399C274.786 242.222 282.846 250.803 291.237 258.461C299.487 265.99 308.041 272.596 317.907 274.568C327.937 276.574 338.881 273.725 351.735 263.404L349.227 260.279C336.985 270.108 327.217 272.343 318.692 270.639C310.002 268.901 302.157 263.001 293.938 255.501C285.86 248.128 277.38 239.155 267.849 232.167C258.226 225.112 247.252 219.843 233.855 219.818L233.847 223.825Z" fill="#602B7A"/>
<path d="M147.395 235.734L268.346 197.626" stroke="#F44C75" stroke-width="16.9226" stroke-linecap="round" stroke-linejoin="round"/>
<circle cx="170.998" cy="242.25" r="10.529" transform="rotate(4.81818 170.998 242.25)" fill="#602B7A"/>
<circle cx="254.713" cy="216.099" r="10.529" transform="rotate(4.81818 254.713 216.099)" fill="#602B7A"/>
<path d="M185.225 154.02L216.06 173.223L221.84 203.145L238.895 197.79" stroke="#602B7A" stroke-width="7.47086" stroke-linecap="round" stroke-linejoin="round"/>
<path d="M132.422 165.528L163.257 184.731L160.004 223.319L177.06 217.964" stroke="#602B7A" stroke-width="7.47086" stroke-linecap="round" stroke-linejoin="round"/>
<path d="M117.577 125.67C117.583 125.668 117.586 125.662 117.585 125.657C110.611 98.4971 126.579 70.6096 153.709 62.9745C180.839 55.3394 208.988 70.8109 217.223 97.6157C217.225 97.6213 217.231 97.6246 217.237 97.623C217.242 97.6214 217.248 97.6247 217.25 97.6304L235.209 161.447C236.807 167.125 230.471 171.721 225.57 168.439L212.75 159.854C209.507 157.683 205.091 158.926 203.456 162.47L192.901 185.358C191.266 188.902 186.85 190.145 183.607 187.973L162.991 174.168C159.748 171.996 155.331 173.239 153.697 176.784L147.401 190.437C144.931 195.794 137.127 195.177 135.529 189.499L117.57 125.683C117.568 125.677 117.572 125.671 117.577 125.67Z" fill="#F44C75"/>
<path d="M156.17 55.0062C152.048 52.8951 149.7 50.0786 149.672 50.0411C148.282 48.3504 145.84 48.0828 144.212 49.443C142.629 50.7821 142.394 53.1579 143.652 54.8489L143.746 54.9766C143.897 55.1622 147.545 59.6313 153.97 62.5917C161.588 66.1071 174.12 69.5855 184.37 67.8193C189.495 66.9362 194.963 65.2562 195.195 65.1803C197.223 64.552 198.331 62.3497 197.651 60.2577C196.976 58.1738 194.782 56.9816 192.746 57.6158C192.746 57.6158 192.726 57.6219 192.693 57.6315C192.296 57.7511 189.722 58.5255 186.692 59.2371C186.718 53.7954 186.76 42.5172 186.685 40.4112C186.579 37.6205 161.949 37.4305 160.202 40.3928C159.018 42.4122 157.207 50.2166 156.17 55.0062Z" fill="#602B7A"/>
<path d="M158.194 85.3131C154.488 87.5661 154.079 92.4565 157.36 95.2928C161.319 98.714 167.216 102.579 174.102 103.152C180.992 103.724 187.449 100.884 191.918 98.1623C195.62 95.9079 196.027 91.0211 192.748 88.1862C188.789 84.7639 182.89 80.8957 176.001 80.3228C169.116 79.7619 162.663 82.5967 158.194 85.3131Z" fill="white"/>
<path d="M174.228 101.656C168.944 101.217 165.029 96.4149 165.486 90.9312C165.942 85.4474 170.595 81.3582 175.88 81.7976C181.164 82.2371 185.079 87.0388 184.623 92.5225C184.167 98.0063 179.513 102.096 174.228 101.656Z" fill="#F44C75"/>
<path d="M174.671 96.2945C172.234 96.0918 170.428 93.8852 170.637 91.366C170.847 88.8467 172.993 86.9688 175.43 87.1714C177.867 87.3741 179.673 89.5806 179.463 92.0999C179.254 94.6191 177.108 96.4972 174.671 96.2945Z" fill="#602B7A"/>
<path d="M165.701 121.102C170.693 122.231 174.139 121.705 174.292 121.68C175.23 121.531 175.892 120.621 175.721 119.68C175.572 118.741 174.683 118.082 173.721 118.25C173.613 118.259 169.908 118.798 164.788 117.29C159.793 115.816 158.514 113.698 158.495 113.675C158.03 112.871 156.974 112.557 156.151 112.999C155.327 113.461 154.999 114.452 155.417 115.293C155.592 115.634 157.318 118.704 163.805 120.627C164.47 120.81 165.095 120.968 165.701 121.102Z" fill="#602B7A"/>
</svg>
